<svg width="70" height="70" viewBox="0 0 70 70" fill="none" xmlns="http://www.w3.org/2000/svg">
<rect width="70" height="70" fill="#FFDA00"/>
<path d="M49.1594 31.6782H44.1112C43.032 31.6781 41.9708 31.9539 41.029 32.4792C40.0872 33.0045 39.2963 33.7617 38.732 34.6786C36.3479 33.7685 33.7062 33.7943 31.3406 34.7507C30.7844 33.8103 29.992 33.0305 29.0415 32.4881C28.091 31.9458 27.0151 31.6595 25.9199 31.6576H20.8353C19.9911 31.6335 19.1506 31.7784 18.3636 32.0838C17.5765 32.3892 16.8589 32.8488 16.2532 33.4354C15.6475 34.0221 15.1661 34.7238 14.8373 35.4992C14.5085 36.2746 14.339 37.1078 14.339 37.9495C14.339 38.7913 14.5085 39.6245 14.8373 40.3999C15.1661 41.1753 15.6475 41.877 16.2532 42.4637C16.8589 43.0503 17.5765 43.5099 18.3636 43.8153C19.1506 44.1207 19.9911 44.2656 20.8353 44.2415H25.8939C26.8786 44.2422 27.85 44.0132 28.7301 43.5728C29.6102 43.1324 30.3746 42.4928 30.9622 41.7052C31.5499 40.9176 31.9445 40.0038 32.1144 39.037C32.2843 38.0702 32.2248 37.0772 31.9406 36.1375C33.9008 35.3614 36.0789 35.3321 38.0594 36.055C37.8678 36.6693 37.7703 37.3088 37.77 37.9521C37.7693 38.7813 37.9329 39.6025 38.2516 40.3685C38.5703 41.1344 39.0378 41.8301 39.627 42.4155C40.2163 43.0009 40.9156 43.4645 41.6851 43.7796C42.4547 44.0947 43.2792 44.2552 44.1112 44.2518H49.1647C50.0089 44.2759 50.8494 44.131 51.6365 43.8256C52.4235 43.5202 53.1412 43.0606 53.7469 42.474C54.3525 41.8873 54.8339 41.1856 55.1627 40.4102C55.4915 39.6348 55.661 38.8016 55.661 37.9599C55.661 37.1181 55.4915 36.2849 55.1627 35.5095C54.8339 34.7341 54.3525 34.0324 53.7469 33.4457C53.1412 32.8591 52.4235 32.3995 51.6365 32.0941C50.8494 31.7888 50.0089 31.6438 49.1647 31.6679L49.1594 31.6782ZM25.9146 42.731H20.8353C19.5957 42.6904 18.4204 42.1709 17.5579 41.2826C16.6954 40.3942 16.2133 39.2064 16.2133 37.9702C16.2133 36.734 16.6954 35.5462 17.5579 34.6578C18.4204 33.7694 19.5957 33.25 20.8353 33.2093H25.8939C27.1335 33.25 28.3088 33.7694 29.1713 34.6578C30.0338 35.5462 30.5162 36.734 30.5162 37.9702C30.5162 39.2064 30.0338 40.3942 29.1713 41.2826C28.3088 42.1709 27.1335 42.6904 25.8939 42.731H25.9146ZM49.1594 42.731H44.1112C43.4707 42.752 42.8324 42.6444 42.2344 42.4146C41.6365 42.1848 41.0912 41.8375 40.6307 41.3934C40.1701 40.9492 39.8039 40.4173 39.5538 39.8292C39.3037 39.2411 39.1747 38.6089 39.1747 37.9702C39.1747 37.3314 39.3037 36.6992 39.5538 36.1111C39.8039 35.5231 40.1701 34.9911 40.6307 34.547C41.0912 34.1028 41.6365 33.7555 42.2344 33.5257C42.8324 33.2959 43.4707 33.1883 44.1112 33.2093H49.1647C49.8052 33.1883 50.4435 33.2959 51.0414 33.5257C51.6394 33.7555 52.1846 34.1028 52.6452 34.547C53.1057 34.9911 53.472 35.5231 53.7221 36.1111C53.9722 36.6992 54.1012 37.3314 54.1012 37.9702C54.1012 38.6089 53.9722 39.2411 53.7221 39.8292C53.472 40.4173 53.1057 40.9492 52.6452 41.3934C52.1846 41.8375 51.6394 42.1848 51.0414 42.4146C50.4435 42.6444 49.8052 42.752 49.1647 42.731H49.1594Z" fill="white"/>
<path d="M35.0697 45.5304C36.2105 45.5426 37.3327 45.2411 38.3128 44.6592C38.3841 44.6192 38.4464 44.5649 38.4957 44.4998C38.545 44.4348 38.5804 44.3603 38.5995 44.281C38.6186 44.2017 38.6211 44.1193 38.6068 44.039C38.5925 43.9587 38.5617 43.8822 38.5164 43.8143C38.4711 43.7464 38.4122 43.6885 38.3434 43.6443C38.2746 43.6001 38.1974 43.5705 38.1166 43.5574C38.0358 43.5443 37.9534 43.5479 37.8741 43.5681C37.7949 43.5882 37.7205 43.6245 37.6559 43.6745C36.8351 44.1255 35.9118 44.359 34.9745 44.3527C34.0372 44.3464 33.1171 44.1005 32.3024 43.6384C32.17 43.5985 32.0279 43.6057 31.9004 43.659C31.7728 43.7123 31.6676 43.8082 31.6033 43.9303C31.539 44.0523 31.5196 44.1929 31.548 44.3278C31.5765 44.4627 31.6512 44.5835 31.7594 44.6695C32.7767 45.2193 33.9126 45.5147 35.0697 45.5304V45.5304Z" fill="#3E3E3F"/>
<path d="M49.3301 46.9378C49.3301 47.4533 48.8128 47.3554 48.8128 47.3554H20.675C20.675 47.3554 20.1577 47.4327 20.1577 46.9378V45.3912H17.6076V47.608C17.6076 47.608 17.8766 50 20.1938 50C22.4076 49.9433 34.6768 50 34.744 50H34.8577C36.5025 50 47.0802 49.9433 49.294 50C51.606 50 51.8802 47.608 51.8802 47.608V45.3912H49.3301V46.9378Z" fill="#3E3E3F"/>
<path d="M26.8457 38.777C26.8457 38.5548 26.7794 38.3375 26.6555 38.1527C26.5316 37.9679 26.3557 37.8238 26.1496 37.7387C25.9436 37.6537 25.7168 37.6314 25.498 37.6748C25.2793 37.7182 25.0784 37.8252 24.9207 37.9824C24.763 38.1395 24.6556 38.3398 24.6121 38.5578C24.5686 38.7758 24.5909 39.0018 24.6762 39.2071C24.7616 39.4125 24.9062 39.588 25.0917 39.7115C25.2771 39.835 25.495 39.9009 25.718 39.9009C26.0167 39.8995 26.3027 39.7807 26.5138 39.5702C26.725 39.3597 26.8443 39.0747 26.8457 38.777V38.777Z" fill="#3E3E3F"/>
<path d="M44.7731 38.777C44.7731 38.5548 44.7071 38.3375 44.5832 38.1527C44.4593 37.9679 44.2831 37.8238 44.0771 37.7387C43.871 37.6537 43.6444 37.6314 43.4257 37.6748C43.207 37.7182 43.0061 37.8252 42.8484 37.9824C42.6907 38.1395 42.5832 38.3398 42.5397 38.5578C42.4962 38.7758 42.5185 39.0018 42.6039 39.2071C42.6892 39.4125 42.8337 39.588 43.0191 39.7115C43.2045 39.835 43.4227 39.9009 43.6457 39.9009C43.9443 39.8995 44.2303 39.7807 44.4415 39.5702C44.6527 39.3597 44.7718 39.0747 44.7731 38.777V38.777Z" fill="#3E3E3F"/>
<path d="M49.3302 25.9096C48.3371 25.9096 45.3061 25.9354 42.2699 25.9096C42.249 25.9098 42.2284 25.9047 42.2101 25.8948C42.1917 25.885 42.1762 25.8706 42.1648 25.8531C42.1535 25.8357 42.1467 25.8156 42.1451 25.7949C42.1436 25.7741 42.1476 25.7533 42.1563 25.7344L44.6647 20.177C44.6757 20.154 44.6794 20.128 44.675 20.1028C44.6707 20.0776 44.6586 20.0543 44.6404 20.0362C44.6223 20.0181 44.5991 20.0061 44.5738 20.0018C44.5485 19.9975 44.5224 20.0011 44.4992 20.0121L37.9044 23.1155C37.8786 23.1277 37.8494 23.1303 37.8218 23.1227C37.7943 23.1152 37.7703 23.098 37.7544 23.0743L36.2802 20.873C36.2714 20.8594 36.2599 20.8477 36.2464 20.8387C36.2328 20.8297 36.2177 20.8236 36.2017 20.8207C36.1857 20.8178 36.1693 20.8182 36.1534 20.8219C36.1376 20.8256 36.1225 20.8324 36.1095 20.8421L35.1164 21.5019C31.4957 23.9197 30.0113 25.1931 29.3906 25.8942C29.3797 25.9065 29.366 25.9161 29.3507 25.9223C29.3355 25.9286 29.3192 25.9313 29.3028 25.9303C25.7286 25.9303 21.544 25.9303 20.225 25.9303C17.9698 25.9303 17.6388 28.1986 17.6388 28.3171V30.4102C17.6381 30.4262 17.6407 30.4421 17.6464 30.4571C17.6521 30.4721 17.6608 30.4858 17.6719 30.4973C17.683 30.5089 17.6963 30.5181 17.711 30.5244C17.7258 30.5307 17.7417 30.5339 17.7578 30.5339H20.0646C20.0976 30.5339 20.1293 30.5208 20.1525 30.4976C20.1758 30.4744 20.1889 30.443 20.1889 30.4102V28.9925C20.1889 28.4769 20.7061 28.5749 20.7061 28.5749H29.7164C30.0523 28.5747 30.3783 28.4621 30.6423 28.2553L35.3907 24.5229C35.4039 24.5124 35.419 24.5048 35.4354 24.5006C35.4518 24.4965 35.469 24.4958 35.4857 24.4988C35.5023 24.5017 35.5179 24.5081 35.5319 24.5176C35.5458 24.5271 35.5577 24.5394 35.5665 24.5538L36.8235 26.4303C36.8402 26.4544 36.865 26.4718 36.8934 26.4793C36.9218 26.4869 36.952 26.4841 36.9785 26.4716L39.1718 25.4405C39.1944 25.4304 39.2193 25.4274 39.2437 25.4317C39.2682 25.436 39.2908 25.4474 39.3086 25.4646C39.3265 25.4818 39.3387 25.5039 39.3438 25.5281C39.3488 25.5523 39.3466 25.5775 39.3372 25.6003L38.0234 28.5233C38.0143 28.5419 38.0103 28.5626 38.0118 28.5832C38.0132 28.6038 38.02 28.6237 38.0315 28.6409C38.043 28.6581 38.0586 28.6719 38.0772 28.6812C38.0957 28.6904 38.1166 28.6946 38.1373 28.6935L40.8889 28.5697H48.844C48.844 28.5697 49.3613 28.4976 49.3613 28.9873V30.405C49.3613 30.4378 49.3744 30.4693 49.3976 30.4925C49.4209 30.5157 49.4526 30.5287 49.4855 30.5287H51.7924C51.8085 30.5287 51.8243 30.5255 51.8391 30.5192C51.8539 30.513 51.8672 30.5038 51.8783 30.4922C51.8894 30.4806 51.8981 30.4669 51.9038 30.452C51.9094 30.437 51.9121 30.421 51.9114 30.405V28.312C51.8958 28.1779 51.5802 25.9096 49.3302 25.9096Z" fill="#3E3E3F"/>
</svg>
